<?xml version="1.0" encoding="UTF-8"?>
<svg width="12px" height="16px" viewBox="0 0 12 16" version="1.1" xmlns="http://www.w3.org/2000/svg" xmlns:xlink="http://www.w3.org/1999/xlink">
    <title>np_microphone_888718_000000</title>
    <g id="Symbols" stroke="none" stroke-width="1" fill="none" fill-rule="evenodd">
        <g id="PROGRAMME" transform="translate(-297.000000, -47.000000)" fill="#000000" fill-rule="nonzero">
            <g id="np_microphone_888718_000000" transform="translate(297.000000, 47.000000)">
                <path d="M6,11 C7.65,11 9,9.64996073 9,7.99991272 L9,3.00008728 C9,1.35003927 7.65,0 6,0 C4.35,0 3,1.35003927 3,3.00008728 L3,7.99991272 C3,9.64996073 4.35,11 6,11 Z" id="Path"></path>
                <path d="M10.0011201,7 L10.0011201,8.4211005 C10.0011201,10.5056844 8.20097608,12.211005 6.00048004,12.211005 C3.799984,12.211005 1.99983999,10.5056844 1.99983999,8.4211005 L1.99983999,7 L0,7 L0,8.4211005 C0,11.2162347 2.14985199,13.5841291 5.00008001,14.0104593 L5.00008001,16 L6.99991999,16 L6.99991999,14.0104593 C9.85014801,13.5370623 12,11.2153251 12,8.4211005 L12,7 L10.0011201,7 Z" id="Path"></path>
            </g>
        </g>
    </g>
</svg>