<?xml version="1.0" encoding="UTF-8"?>
<svg width="32px" height="32px" viewBox="0 0 32 32" version="1.1" xmlns="http://www.w3.org/2000/svg" xmlns:xlink="http://www.w3.org/1999/xlink">
    <title>iconmonstr-facebook-3</title>
    <g id="MAQUETTE" stroke="none" stroke-width="1" fill="none" fill-rule="evenodd">
        <g id="Mobile" transform="translate(-1146.000000, -1209.000000)" fill="#000000" fill-rule="nonzero">
            <g id="Group-14" transform="translate(20.000000, 1209.000000)">
                <g id="iconmonstr-facebook-3" transform="translate(1126.000000, 0.000000)">
                    <path d="M25.3333333,0 L6.66666667,0 C2.98533333,0 0,2.98533333 0,6.66666667 L0,25.3333333 C0,29.0146667 2.98533333,32 6.66666667,32 L25.3333333,32 C29.016,32 32,29.0146667 32,25.3333333 L32,6.66666667 C32,2.98533333 29.016,0 25.3333333,0 Z M21.3333333,9.33333333 L18.768,9.33333333 C17.948,9.33333333 17.3333333,9.66933333 17.3333333,10.5186667 L17.3333333,12 L21.3333333,12 L21.016,16 L17.3333333,16 L17.3333333,26.6666667 L13.3333333,26.6666667 L13.3333333,16 L10.6666667,16 L10.6666667,12 L13.3333333,12 L13.3333333,9.436 C13.3333333,6.74 14.752,5.33333333 17.948,5.33333333 L21.3333333,5.33333333 L21.3333333,9.33333333 Z" id="Shape"></path>
                </g>
            </g>
        </g>
    </g>
</svg>