<?xml version="1.0" encoding="UTF-8"?>
<svg width="32px" height="32px" viewBox="0 0 32 32" version="1.1" xmlns="http://www.w3.org/2000/svg" xmlns:xlink="http://www.w3.org/1999/xlink">
    <title>np_instagram_3350818_000000</title>
    <g id="MAQUETTE" stroke="none" stroke-width="1" fill="none" fill-rule="evenodd">
        <g id="Mobile" transform="translate(-1238.000000, -1209.000000)" fill="#000000" fill-rule="nonzero">
            <g id="Group-14" transform="translate(20.000000, 1209.000000)">
                <g id="Group-6" transform="translate(1126.000000, 0.000000)">
                    <g id="np_instagram_3350818_000000" transform="translate(92.000000, 0.000000)">
                        <path d="M27.2536475,0 L4.74635254,0 C3.48886111,0.0037500425 2.28388116,0.50498695 1.39374606,1.39374606 C0.50501895,2.28372116 0.00374396256,3.48873311 0,4.74635254 L0,27.2536475 C0.0037500425,28.5111389 0.50498695,29.7161188 1.39374606,30.6062539 C2.28372116,31.4949811 3.48873311,31.996256 4.74635254,32 L27.2536475,32 C28.5111389,31.99625 29.7161188,31.495013 30.6062539,30.6062539 C31.4949811,29.7162788 31.996256,28.5112669 32,27.2536475 L32,4.74635254 C31.99625,3.48886111 31.495013,2.28388116 30.6062539,1.39374606 C29.7162788,0.50501895 28.5112669,0.00374396256 27.2536475,0 Z M29.3336267,27.2534875 C29.3336267,28.402212 28.402372,29.3334667 27.2536475,29.3334667 L4.74635254,29.3334667 C3.59762802,29.3334667 2.66637334,28.402212 2.66637334,27.2534875 L2.66637334,4.74619254 C2.66637334,3.59746803 3.59762802,2.66621334 4.74635254,2.66621334 L27.2536475,2.66621334 C28.402372,2.66621334 29.3336267,3.59746803 29.3336267,4.74619254 L29.3336267,27.2534875 Z" id="Shape"></path>
                        <path d="M16.8421053,8.42105263 C14.6092305,8.42105263 12.467235,9.30788343 10.8881318,10.8881318 C9.30788343,12.4670666 8.42105263,14.6091968 8.42105263,16.8421053 C8.42105263,19.0750137 9.30788343,21.2169755 10.8881318,22.7960787 C12.4670666,24.3763271 14.6091968,25.2631579 16.8421053,25.2631579 C19.0750137,25.2631579 21.2169755,24.3763271 22.7960787,22.7960787 C24.3763271,21.2171439 25.2631579,19.0750137 25.2631579,16.8421053 C25.2631579,14.6091968 24.3763271,12.467235 22.7960787,10.8881318 C21.2171439,9.30788343 19.0750137,8.42105263 16.8421053,8.42105263 Z M16.8421053,22.4564772 C15.3526351,22.4564772 13.9250086,21.8643809 12.8724528,20.8117577 C11.819897,19.7591346 11.2277333,18.3315081 11.2277333,16.8421053 C11.2277333,15.3527024 11.8198297,13.9250086 12.8724528,12.8724528 C13.925076,11.819897 15.3527024,11.2277333 16.8421053,11.2277333 C18.3315081,11.2277333 19.7592019,11.8198297 20.8117577,12.8724528 C21.8643135,13.925076 22.4564772,15.3527024 22.4564772,16.8421053 C22.4564772,18.3315081 21.8643809,19.7592019 20.8117577,20.8117577 C19.7591346,21.8643135 18.3315081,22.4564772 16.8421053,22.4564772 Z" id="Shape"></path>
                        <path d="M26.9473684,7.15789474 C26.9473684,8.31973053 26.0052547,9.26315789 24.8421053,9.26315789 C23.6802695,9.26315789 22.7368421,8.31973053 22.7368421,7.15789474 C22.7368421,5.99474526 23.6802695,5.05263158 24.8421053,5.05263158 C26.0052547,5.05263158 26.9473684,5.99474526 26.9473684,7.15789474" id="Path"></path>
                    </g>
                </g>
            </g>
        </g>
    </g>
</svg>