<?xml version="1.0" encoding="UTF-8"?>
<svg width="40px" height="32px" viewBox="0 0 40 32" version="1.1" xmlns="http://www.w3.org/2000/svg" xmlns:xlink="http://www.w3.org/1999/xlink">
    <title>iconmonstr-twitter-1</title>
    <g id="MAQUETTE" stroke="none" stroke-width="1" fill="none" fill-rule="evenodd">
        <g id="Mobile" transform="translate(-1190.000000, -1209.000000)" fill="#000000" fill-rule="nonzero">
            <g id="Group-14" transform="translate(20.000000, 1209.000000)">
                <g id="Group-6" transform="translate(1126.000000, 0.000000)">
                    <g id="iconmonstr-twitter-1" transform="translate(44.000000, 0.000000)">
                        <path d="M40,3.78835111 C38.5283333,4.43150123 36.9466667,4.86464315 35.2866667,5.05988515 C36.9816667,4.0607055 38.2833333,2.47744053 38.895,0.590648072 C37.31,1.51599672 35.5533333,2.18867925 33.6833333,2.55127153 C32.1883333,0.981132075 30.0533333,0 27.6933333,0 C22.395,0 18.5016667,4.86628384 19.6983333,9.91796555 C12.88,9.58162428 6.83333333,6.36587367 2.785,1.47826087 C0.635,5.10910582 1.67,9.85890074 5.32333333,12.2641509 C3.98,12.221493 2.71333333,11.8589007 1.60833333,11.2534865 C1.51833333,14.9958983 4.24333333,18.4971288 8.19,19.2764561 C7.035,19.5849057 5.77,19.657096 4.48333333,19.414274 C5.52666667,22.6234619 8.55666667,24.9581624 12.15,25.02379 C8.7,27.6866284 4.35333333,28.876128 0,28.3707957 C3.63166667,30.6628384 7.94666667,32 12.58,32 C27.8166667,32 36.425,19.3322395 35.905,7.9704676 C37.5083333,6.83018868 38.9,5.40771124 40,3.78835111 Z" id="Path"></path>
                    </g>
                </g>
            </g>
        </g>
    </g>
</svg>